# xmcd
#
# Track frame offsets:
#	180
#	20745
#	40836
#	68241
#
# Disc length: 1253 seconds
#
# Revision: 23
# Processed by: cddbd v1.5.2PL0 Copyright (c) Steve Scherf et al.
# Submitted via: EasyCDDAExtractor 15.3.0.1
#
DISCID=3004e304
DTITLE=Madonna - American Pie
DYEAR=2000
DGENRE=Pop
TTITLE0=American Pie (Album Version)
TTITLE1=American Pie (Richard 'Humpty' Vission Radio Mix)
TTITLE2=American Pie (Victor Calderone Filter Dub Mix)
TTITLE3=American Pie (Richard 'Humpty' Vission Visits Madonna)
EXTD=YEAR: 2000
EXTT0=
EXTT1=
EXTT2=
EXTT3=
PLAYORDER=
